<mxfile host="app.diagrams.net" modified="2024-03-08T17:45:47.052Z" agent="Mozilla/5.0 (Windows NT 10.0; Win64; x64) AppleWebKit/537.36 (KHTML, like Gecko) Chrome/122.0.0.0 Safari/537.36 Edg/122.0.0.0" version="24.0.2" etag="t1TZ0o5SVPNlnnViT852" type="github">
  <diagram name="PÃ¡gina-1" id="0bmYL0jAxuK6_Wu-7RMs">
    <mxGraphModel>
      <root>
        <mxCell id="0" />
        <mxCell id="1" parent="0" />
      </root>
    </mxGraphModel>
  </diagram>
</mxfile>
